<svg fill="none" viewBox="0 0 24 24" xmlns="http://www.w3.org/2000/svg"><path clip-rule="evenodd" d="M3.293 3.293a1 1 0 0 1 1.414 0l8 8 8 8a1 1 0 0 1-1.414 1.414L11.6 13.016a4.985 4.985 0 0 0-3.327 1.65 1 1 0 0 1-1.49-1.334 7.007 7.007 0 0 1 3.12-2.013l-1.55-1.55A9.021 9.021 0 0 0 5.573 11.7a1 1 0 0 1-1.429-1.4A11.033 11.033 0 0 1 6.86 8.273l-1.47-1.47c-.5.296-.977.624-1.431.982a1 1 0 0 1-1.238-1.57c.39-.308.796-.597 1.216-.865l-.643-.643a1 1 0 0 1 0-1.414ZM12 5c-.632 0-1.252.045-1.858.132a1 1 0 1 1-.284-1.98C10.558 3.052 11.273 3 12 3a14.94 14.94 0 0 1 9.28 3.215 1 1 0 0 1-1.238 1.57A12.94 12.94 0 0 0 12 5Zm.005 2.95a1 1 0 0 1 1.094-.896 10.97 10.97 0 0 1 6.756 3.246 1 1 0 1 1-1.428 1.4 8.97 8.97 0 0 0-5.526-2.656 1 1 0 0 1-.896-1.093ZM12 17a1 1 0 1 0 0 2 1 1 0 0 0 0-2Zm-3 1a3 3 0 1 1 6 0 3 3 0 0 1-6 0Z" fill="#3d3a3a" fill-rule="evenodd" class="fill-000000"></path></svg>